<?xml version="1.0" encoding="UTF-8"?><svg xmlns="http://www.w3.org/2000/svg" xmlns:xlink="http://www.w3.org/1999/xlink" width="40px" height="34px" viewBox="0 0 39 34" version="1.1"><g id="surface1"><path style="fill:none;stroke-width:4;stroke-linecap:butt;stroke-linejoin:miter;stroke:rgb(100%,100%,100%);stroke-opacity:1;stroke-miterlimit:4;" d="M 25.003806 50 L 174.996194 50 L 174.996194 150 L 25.003806 150 Z M 25.003806 50 " transform="matrix(0.246835,0,0,0.25,-5.183544,-4.625)"/><path style="fill:none;stroke-width:4;stroke-linecap:butt;stroke-linejoin:miter;stroke:rgb(100%,100%,100%);stroke-opacity:1;stroke-miterlimit:4;" d="M 25.003806 50 L 100 110 L 100 90 L 174.996194 150 " transform="matrix(0.246835,0,0,0.25,-5.183544,-4.625)"/><path style="fill-rule:nonzero;fill:rgb(100%,100%,100%);fill-opacity:1;stroke-width:4;stroke-linecap:butt;stroke-linejoin:miter;stroke:rgb(100%,100%,100%);stroke-opacity:1;stroke-miterlimit:4;" d="M 122.503606 30 C 122.503606 34.140625 119.148638 37.5 115.002404 37.5 C 110.85617 37.5 107.501202 34.140625 107.501202 30 C 107.501202 25.859375 110.85617 22.5 115.002404 22.5 C 119.148638 22.5 122.503606 25.859375 122.503606 30 Z M 122.503606 30 " transform="matrix(0.246835,0,0,0.25,-5.183544,-4.625)"/><path style="fill-rule:nonzero;fill:rgb(100%,100%,100%);fill-opacity:1;stroke-width:4;stroke-linecap:butt;stroke-linejoin:miter;stroke:rgb(100%,100%,100%);stroke-opacity:1;stroke-miterlimit:4;" d="M 92.498798 30 C 92.498798 34.140625 89.14383 37.5 84.997596 37.5 C 80.851362 37.5 77.496394 34.140625 77.496394 30 C 77.496394 25.859375 80.851362 22.5 84.997596 22.5 C 89.14383 22.5 92.498798 25.859375 92.498798 30 Z M 92.498798 30 " transform="matrix(0.246835,0,0,0.25,-5.183544,-4.625)"/><path style="fill:none;stroke-width:4;stroke-linecap:butt;stroke-linejoin:miter;stroke:rgb(100%,100%,100%);stroke-opacity:1;stroke-miterlimit:4;" d="M 75.423277 139.765625 C 75.423277 124.765625 100.427284 124.765625 100.427284 139.765625 C 100.427284 124.765625 125.415465 124.765625 125.415465 139.765625 " transform="matrix(0.246835,0,0,0.25,-5.183544,-4.625)"/></g></svg>